<?xml version="1.0" encoding="utf-8"?>
<!-- Generator: Adobe Illustrator 22.1.0, SVG Export Plug-In . SVG Version: 6.00 Build 0)  -->
<svg version="1.0" xmlns="http://www.w3.org/2000/svg" xmlns:xlink="http://www.w3.org/1999/xlink" x="0px" y="0px"
	 viewBox="0 0 436 527" style="enable-background:new 0 0 436 527;" xml:space="preserve">
<g id="Layer_3">
	<path style="fill:#319E6B;stroke:#6AAE8F;stroke-width:2;stroke-miterlimit:10;" d="M400,276c0,0-3-5-2-10s-6-11-6-11l-33-122
		l-27-45l-50-27c0,0-16-5-23-2s-92,8-92,8s-16,1-23,13c0,0,8,7,15,10s14,10,18,18s9,8,9,8l-48,2l-21-27c0,0-20,4-28,14s-6,21-6,21
		l-11,10v5c0,0-3,4-7,5s-4,8-4,8s-3-2-5,6s-2,8-2,8l-3,5c0,0-2,19,0,18s-8,13-6,17s1,14,3,14s2,11,2,11l-2,5c0,0,5,3,4,5s-7,12-7,12
		s-4,10,0,13s7-2,7-2l20-5l21,1c0,0,12-4,12-2s15-9,15-9l12-3c0,0,3-1,7,0s11,1,22,7s25,19,25,21s-15,10-15,10L39,344l-4,6
		c0,0,0,7,3,6c0,0-2,2,0,10s2,11,2,11c5,7,9,16,8,17c0,0,3,1,5,11s19,27,22,29s9,11,10,13s6,11,14,14c0,0,0,8,9,12s47,28,63,24
		s44-5,44-5l18-10h4c0,0,2-9,6-11s133-103,133-103s-12,4-21-6c0,0,1-4,6-8s12-9,17-18s8-6,14-19S405,303,400,276z M313.5,357.5
		c-17-2-34-19-34-19s0,0,4-4s8,2,15-3s12-1,12-1s10-7,14,0s18,27,18,27S330.5,359.5,313.5,357.5z"/>
</g>
<g id="Layer_4">
	<path style="fill:none;stroke:#6AAE8F;stroke-width:2;stroke-miterlimit:10;" d="M314.5,148.5c-7-2-11-1-13,2s-5,6-5,6s-3,0-7,5
		s6-6-15,9c0,0-10,5-17,16s-8,13-7,23c0,0,2,5,11,4s15-6,15-6l2,1"/>
	<path style="fill:none;stroke:#6AAE8F;stroke-width:2;stroke-miterlimit:10;" d="M179,214l9,9c0,0,6,1,6,12s2,12-1,25s-8,18-8,18
		l-13,7"/>
	<path style="fill:none;stroke:#6AAE8F;stroke-width:2;stroke-miterlimit:10;" d="M266,278l-7,3c0,0-3,2-5,7s-4,8-4,16s8,15,8,15
		s10,10,21,19"/>
	<path style="fill:none;stroke:#6AAE8F;stroke-width:2;stroke-miterlimit:10;" d="M211,461c0,0,26-20,26-27s7-26,7-26s6-20,4-26
		s-7-26-7-26"/>
	<path style="fill:none;stroke:#6AAE8F;stroke-width:2;stroke-miterlimit:10;" d="M99,463c0,0,22-6,29-14s27-26,27-26s5-7,5-10"/>
	<path style="fill:none;stroke:#6AAE8F;stroke-width:2;stroke-miterlimit:10;" d="M220.7,453.1c0,0-10.7-44.1-4.7-57.1"/>
</g>
<g id="Layer_2">
	<g>
		<path style="fill:#6AAE8F;" d="M195.2,217.3c-1.4,0-3-0.1-4.6-0.3c-2-0.2-4.2-0.4-6.6-0.4c-1.9,0-3.7,0.1-5.5,0.4
			c-0.6,0.1-1.4,0.1-2.3,0.1c0,0,0,0,0,0c-18.9,0-91.5-18.6-97.2-20c-2.8-47.3,21.8-82.1,33.6-98.9l0.3-0.4
			c8.2-11.6,12.1-13.2,14.7-13.2c0.7,0,1.3,0.1,1.9,0.2c0.6,0.1,1.3,0.2,1.9,0.2c3.5,0,12.4,12.4,13.6,14.7
			c1.2,2.5,4.2,5.4,11.4,5.4c1,0,2-0.1,3.1-0.2c0.4,0,0.8-0.1,1.2-0.1c9.3,0,19.3,10.8,19.4,10.9l0.2,0.3l0.3-0.2
			c0.1-0.1,13.1-6,30.8-7c3-0.2,5.2-0.2,7.2-0.2c15,0,24.4,4.3,25.3,25.8c0.6,16.3-13,35-23.9,50.1c-6.6,9-12.2,16.8-14.1,22.8
			C203.4,215.7,200.1,217.3,195.2,217.3z"/>
		<path style="fill:#6AAE8F;" d="M127.6,85.1c0.6,0,1.2,0.1,1.9,0.2c0.6,0.1,1.3,0.2,2,0.2c3.1,0,11.8,11.8,13.1,14.4
			c1.3,2.6,4.4,5.7,11.9,5.7c1,0,2-0.1,3.1-0.2c0.4,0,0.7-0.1,1.1-0.1c0,0,0,0,0,0c9.1,0,19,10.6,19.1,10.7l0.5,0.5l0.7-0.3
			c0.1-0.1,13.1-5.9,30.6-6.9c3-0.2,5.2-0.2,7.2-0.2c14.7,0,23.9,4.2,24.8,25.3c0.6,16.1-12.9,34.8-23.8,49.8
			c-6.6,9.1-12.3,16.9-14.1,22.9c-2.5,8.1-5.6,9.6-10.4,9.6c-1.4,0-2.9-0.1-4.6-0.3c-2-0.2-4.2-0.4-6.7-0.4c-1.9,0-3.7,0.1-5.5,0.4
			c-0.6,0.1-1.3,0.1-2.2,0.1c-18.5,0-88.9-17.9-96.7-19.9c-2.7-46.9,21.8-81.5,33.6-98.2l0.3-0.4C122.5,85.1,126.1,85.1,127.6,85.1
			 M127.6,84.1c-3,0-7,1.8-15.1,13.4c-12,17-37,52-34,100c0,0,77.8,20.1,97.7,20.1c0.9,0,1.7,0,2.3-0.1c1.9-0.3,3.7-0.3,5.4-0.3
			c4.4,0,8.1,0.6,11.2,0.6c5.1,0,8.6-1.6,11.3-10.3c5-16,39-47,38-73c-0.9-22.4-11.4-26.2-25.8-26.2c-2.3,0-4.7,0.1-7.2,0.2
			c-18,1-31,7-31,7s-10.1-11.1-19.8-11.1c-0.4,0-0.8,0-1.2,0.1c-1.1,0.1-2.1,0.2-3,0.2c-7.6,0-10.1-3.4-11-5.2c-1-2-10-15-14-15
			C130.2,84.5,129,84.1,127.6,84.1L127.6,84.1z"/>
	</g>
	<g>
		<path style="fill:#6AAE8F;" d="M260.9,111.9c-1.9,0-3.4-1-4.5-3.2c-4.5-8.9-20.1-13.4-27.6-13.4c-0.8,0-1.4,0.1-2,0.2
			c-0.9,0.2-2.1,0.3-3.7,0.3c-7.3,0-18.5-1.7-19.8-3.1c-2.1-2.1-5.2-2.1-5.4-2.1h-0.1l-0.1,0c-1.3,0.4-2.4,0.5-3.5,0.5
			c-3.5,0-4.7-1.9-4.9-2.2c-0.2-0.6-1.7-5.4-6.4-5.4c-1.3,0-2.8,0.4-4.3,1.2c-2.7,1.3-5.4,2-8.2,2c-2.9,0-4.9-0.8-5.3-1
			c-0.8-0.9-5.5-6.2-7.9-6.2c-0.2,0-0.5,0.1-0.7,0.2c-0.5,0.3-1,0.4-1.4,0.4c-0.7,0-1-0.3-1-0.3c-1.5-1.8-3.3-2.8-5.2-2.8
			c-2.4,0-4.3,1.5-5.1,2.4c-0.1-0.9,0.6-3.5,7.3-10.9c5.6-6.2,19-14.7,29.8-21.5c9.8-6.2,15.4-9.8,16.3-11.6
			c1.2-2.5,4.2-2.8,5.9-2.8c0.7,0,1.3,0.1,1.5,0.1c1.1,0.5,15.1,7.2,36.1,11c21.6,3.9,56.4,45.4,56.7,45.8c0.4,0.7,1.3,2.9,0.6,4.2
			c-0.4,0.7-1.4,1.1-2.8,1.1c-0.4,0-0.9,0-1.4-0.1c-0.4,0-0.8-0.1-1.2-0.1c-8,0-18.7,8.8-19.2,9.2
			C273.6,103.8,266.4,111.9,260.9,111.9z"/>
		<path style="fill:#6AAE8F;" d="M203.4,32.9c0.6,0,1.1,0.1,1.3,0.1c1.6,0.8,15.4,7.3,36.1,11c8.8,1.6,21.3,10,36.2,24.2
			c10.8,10.4,19.3,20.4,20.1,21.4c0.5,0.9,1.2,2.8,0.6,3.7c-0.4,0.7-1.5,0.8-2.4,0.8c-0.4,0-0.8,0-1.3-0.1c-0.4-0.1-0.8-0.1-1.3-0.1
			c-8.2,0-19,8.9-19.5,9.3l-0.1,0.1l-0.1,0.1c-2,2.3-8,8.1-12.3,8.1c-1.7,0-3.1-0.9-4-2.9c-4.6-9.1-20.4-13.7-28-13.7
			c-0.8,0-1.5,0.1-2.1,0.2c-0.8,0.2-2.1,0.2-3.6,0.2c-7.7,0-18.3-1.8-19.5-3c-2.3-2.3-5.6-2.3-5.7-2.3h-0.1l-0.1,0
			c-1.2,0.3-2.3,0.5-3.3,0.5c-3.1,0-4.2-1.6-4.4-1.9c-0.6-2.1-2.7-5.7-6.8-5.7c-1.4,0-2.9,0.4-4.6,1.2c-2.6,1.3-5.3,2-7.9,2
			c-2.6,0-4.5-0.7-5-0.9c-1.5-1.7-5.7-6.3-8.2-6.3c-0.3,0-0.6,0.1-0.9,0.2c-0.4,0.2-0.9,0.3-1.2,0.3c-0.4,0-0.6-0.1-0.6-0.1
			c-1.7-2-3.5-3-5.5-3c-1.7,0-3.2,0.7-4.3,1.5c0.6-1.4,2.3-4.2,6.8-9.2c5.6-6.1,19-14.6,29.7-21.4c9.9-6.3,15.5-9.9,16.4-11.8
			C199,33.3,201.5,32.9,203.4,32.9 M203.4,31.9c-1.9,0-5,0.4-6.4,3.1c-2,4-36,22-46,33s-7,12-7,12s2.2-2.7,5.2-2.7
			c1.5,0,3.1,0.7,4.8,2.7c0,0,0.4,0.4,1.3,0.4c0.4,0,1-0.1,1.7-0.4c0.1-0.1,0.3-0.1,0.5-0.1c2.3,0,7.5,6.1,7.5,6.1s2.2,1.1,5.6,1.1
			c2.3,0,5.2-0.5,8.4-2.1c1.6-0.8,3-1.1,4.1-1.1c4.6,0,5.9,5.1,5.9,5.1s1.3,2.6,5.4,2.6c1,0,2.2-0.2,3.6-0.6c0,0,3,0,5,2
			c1.6,1.6,13.3,3.3,20.2,3.3c1.6,0,2.9-0.1,3.8-0.3c0.5-0.1,1.1-0.1,1.9-0.1c6.8,0,22.6,4.1,27.1,13.1c1.2,2.5,3,3.4,4.9,3.4
			c5.8,0,13.1-8.4,13.1-8.4s10.9-9.1,18.8-9.1c0.4,0,0.8,0,1.2,0.1c0.5,0.1,1,0.1,1.4,0.1c6,0,2.6-6.1,2.6-6.1s-35-42-57-46
			s-36-11-36-11S204.3,31.9,203.4,31.9L203.4,31.9z"/>
	</g>
	<g>
		<path style="fill:#6AAE8F;" d="M361.8,145c-1.3,0-4.3-6.9-6.3-13.2l0-0.1l0,0c-0.1-0.1-5.4-9.4-12.8-19.4
			c-10-13.5-18.9-21.9-26.5-24.8c-9.7-3.8-15.3-9.6-19.8-14.2c-3.9-4.1-7-7.3-11.3-7.8c-4.3-2.3-7.9-5-7.7-5.7c0,0,0.2-0.3,1.6-0.3
			c20.4,0,37.1,7.3,49.6,21.8c18.9,21.9,19.9,25.9,21.9,33.8c1.9,7.7,11,16.2,12.1,17.2c0.3,0.7,1.7,5.4-0.1,11.6
			C362.3,144.7,362,145,361.8,145z"/>
		<path style="fill:#6AAE8F;" d="M279,60c3.6,0,11.1,0,20.2,2.7c11.3,3.4,21.1,9.7,29,18.9c18.8,21.8,19.8,25.8,21.8,33.6
			c1.9,7.7,10.7,16,12.1,17.3c0.3,1,1.6,5.4-0.1,11.2c-0.1,0.4-0.2,0.6-0.3,0.8c-1.2-0.8-3.8-6.4-5.8-12.8l0-0.1l-0.1-0.1
			c-0.1-0.1-5.4-9.4-12.8-19.5c-10.1-13.6-19-22-26.7-25c-9.6-3.7-15.1-9.5-19.6-14.1c-3.9-4.1-7.1-7.3-11.5-7.9
			c-3.4-1.8-6.4-4-7.2-5C278.3,60,278.6,60,279,60 M279,59c-7,0,6,7,6,7c9,1,13,15,31,22s39,44,39,44s4.3,13.5,6.8,13.5
			c0.5,0,0.9-0.5,1.2-1.5c2-7,0-12,0-12s-10-9-12-17s-3-12-22-34S286,59,279,59L279,59z"/>
	</g>
	<g>
		<path style="fill:#6AAE8F;" d="M289,324.5c-0.1,0-2.5-0.2-2.5-5.5c0-5.9-7-8.9-8.2-9.4c-0.6-0.9-3.7-6.3-2.8-11.5
			c0.3-1.8,0-3.3-1-4.5c-1.8-2.5-5.3-3-5.5-3c0,0,0,0,0,0c0,0-1.9-0.5-3.3-2.9c-1.7-3-1.8-7.7-0.3-13.5c1.2-4.4,0.8-8.3-1.2-11.5
			c-3.3-5.2-9.6-6.8-10.9-7.1c-1.2-1.9-10.9-18.9,0-26.1c1.5-1,3.1-2,4.5-3c10.3-6.8,17.7-11.7,17.7-15.4c0-3.1,5.7-8.7,7.8-10.6
			l5.1-3l0.1-0.1c0-0.1,4-7.9,8.7-9.8c5.3-2.1,3.4-15,3.3-15.5c0-0.2-0.9-21.5,6.6-22.4c1.6-0.2,3.1-0.3,4.5-0.4
			c5.6-0.4,10-0.8,10.9-5.8c1-0.8,7.2-5.8,11.5-5.8c1.8,0,3.1-0.5,3.9-1.5c0.8-1.1,0.7-2.4,0.7-2.9c0.4-0.6,2.1-2.5,4.6-2.5
			c3,0,6.2,2.6,9.4,7.6c6.9,10.7,8.5,12.1,10.7,14c0.7,0.6,1.4,1.2,2.3,2.1c1.8,1.8,3.4,4.5,5,7.1c2,3.2,3.8,6.3,6.1,8c4,3,9,6,9,6
			c0.2,0.1,10.8,5.1,10.8,18.6c0,5.1-0.3,9.5-0.5,13.3c-0.4,6.9-0.8,12.4,0.5,18.8c1.9,9.6,0,36.7-3,42.7
			c-2.9,5.9-2.1,16.1-2.1,17.2c-0.2,0.8-2.3,7.8-15,7.8c-1.4,0-2.9-0.1-4.5-0.3c-1.6-0.2-3.2-0.3-4.7-0.3c-14.1,0-19.3,7.6-19.8,8.4
			c-0.4,0.4-4.3,4-10.7,5.8c-7,2-20.9,8-21.1,8C315.6,315.6,296.8,324.5,289,324.5z"/>
		<path style="fill:#6AAE8F;" d="M343.2,131.2c2.8,0,5.9,2.6,9,7.4c6.9,10.8,8.6,12.2,10.8,14.1c0.7,0.6,1.4,1.2,2.3,2.1
			c1.8,1.8,3.4,4.4,4.9,7c2,3.3,3.9,6.4,6.2,8.1c4,3,9,6,9.1,6.1l0,0l0.1,0c0,0,2.6,1.2,5.2,4c3.5,3.8,5.2,8.5,5.2,14.1
			c0,5.1-0.3,9.4-0.5,13.3c-0.4,6.7-0.8,12.5,0.5,18.9c1.9,9.5,0.1,36.4-2.9,42.4c-2.9,5.8-2.2,15.9-2.1,17.4
			c-0.3,0.9-2.5,7.3-14.5,7.3c-1.4,0-2.9-0.1-4.4-0.3c-1.6-0.2-3.2-0.3-4.7-0.3c-14,0-19.4,7.5-20.2,8.6c-0.6,0.5-4.4,3.9-10.5,5.7
			c-7,2-20.5,7.8-21.2,8.1c-0.2,0.1-18.9,8.9-26.5,8.9c-0.7-0.1-2-1.2-2-5c0-6-6.7-9.1-8.3-9.8c-0.7-1.2-3.5-6.2-2.7-11
			c0.3-1.9,0-3.5-1-4.9c-1.8-2.5-5.2-3.1-5.7-3.2c-0.6-0.2-6.8-2.4-3.2-15.8c1.2-4.6,0.8-8.6-1.3-11.9c-3.2-5.1-9.3-6.9-11-7.3
			c-1.5-2.6-10.3-18.5-0.1-25.3c1.5-1,3.1-2,4.5-3C268.9,219.7,276,215,276,211c0-2.6,4.6-7.6,7.6-10.2l4.9-3l0.2-0.1l0.1-0.3
			c0-0.1,3.9-7.7,8.5-9.5c5.5-2.2,3.9-14.4,3.6-16c0-0.6-0.2-5.7,0.5-10.9c0.6-4.8,2.1-10.6,5.6-11c1.6-0.2,3-0.3,4.5-0.4
			c5.5-0.4,10.2-0.8,11.3-6c1.3-1.1,7-5.5,11.1-5.5c2,0,3.4-0.6,4.3-1.7c0.8-1.1,0.9-2.4,0.8-3.1
			C339.6,132.6,341.1,131.2,343.2,131.2 M343.2,130.2c-3.3,0-5.2,2.8-5.2,2.8s1,4-4,4s-12,6-12,6c-1,6-7,5-15,6s-7,23-7,23
			s2,13-3,15s-9,10-9,10l-5,3c0,0-8,7-8,11s-10,10-22,18s0,27,0,27s16,3,12,18s4,17,4,17s7,1,6,7s3,12,3,12s8,3,8,9s3,6,3,6
			c8,0,27-9,27-9s14-6,21-8s11-6,11-6s5-8.3,19.4-8.3c1.4,0,3,0.1,4.6,0.3c1.6,0.2,3.1,0.3,4.5,0.3c13.8,0,15.5-8.3,15.5-8.3
			s-1-11,2-17s5-33,3-43s0-18,0-32s-11-19-11-19s-5-3-9-6s-7-11-11-15s-4-2-13-16C349.1,131.9,345.7,130.2,343.2,130.2L343.2,130.2z
			"/>
	</g>
	<g>
		<path style="fill:#6AAE8F;" d="M189,433c-3.4,0-11.5-1.4-27.8-10.5l-0.1-0.1l-0.2,0c0,0-3.8,0.5-8.3,0.5c-6,0-10.6-0.8-13.4-2.4
			c-1.7-1-3.3-2.1-4.8-3.2c-3.1-2.2-6-4.2-8.6-4.2c-1.7,0-3.1,0.8-4.2,2.6c-1.6,2.3-3.8,3.5-6.6,3.5c-2.1,0-3.8-0.7-3.8-0.7l-0.1,0
			l-11.3-2.1l-0.2,0.2c0,0-3.9,3.9-8.6,3.9c-5,0-10.6,0-16.5-17.7c-5.5-16.5-12.8-17.4-14.2-17.4c-0.1,0-0.1,0-0.2,0
			c-0.5-0.2-6.2-2.4-13.6-22.7c-7.8-21.5-15.9-43.7-16-61.5c1.3-0.7,7.1-3.8,10.5-3.8c4.1,0,8.3-27,9.5-35.4
			c0.3-0.6,2.8-6.3,8.9-6.3c5.1,0,11.2,3.9,18.2,11.5c6.6,7.3,12.1,10.9,16.3,10.9c5.8,0,7.2-6.9,7.5-8.8c1.8,0.1,8.6,0.7,15.3,4.9
			c6.9,4.3,40.7,9.5,62.3,9.5c3.5,0,6.5-0.1,9-0.4l0.1,0l0.1,0c0,0,0.1,0,0.3,0c1,0,4.2,1,5,13.6c0.6,9.6,3.4,11.6,5.7,11.6
			c1.5,0,2.7-0.9,3.1-1.1c0.1,0,0.2,0,0.4,0c0.8,0,2.8,0.4,4.9,4.3c2.6,4.9,4.3,13.4,5,25.3l0,0.3l0.3,0.1c0.4,0.2,2.4,1,11,5
			c2,0.9,3.9,1.8,5.8,2.6c10.5,4.6,18.7,8.3,17.9,13.9c-0.9,6.5-5.4,13-5.9,13.7c-1.2,0.9-15.2,11.4-18.1,20.2
			c-1.3,3.9-4.6,7.9-8.2,12.2c-4.6,5.5-9.3,11.2-9.8,16.9c-0.9,9.5-13.4,10.5-13.5,10.6l-0.1,0l-0.1,0.1
			C191.7,432.6,191,433,189,433z"/>
		<path style="fill:#6AAE8F;" d="M59.4,255.3v1c5,0,11,3.8,17.9,11.4c6.7,7.4,12.3,11.1,16.6,11.1c5.2,0,7.4-5.3,8-8.7
			c2.2,0.2,8.5,1,14.6,4.8c7,4.4,40.9,9.5,62.6,9.5c3.5,0,6.5-0.1,9-0.4l0.1,0l0.1-0.1c0,0,0.1,0,0.2,0c0.4,0,3.7,0.4,4.5,13.1
			c0.5,8,2.6,12,6.2,12c1.5,0,2.8-0.8,3.3-1.2c0,0,0.1,0,0.2,0c0.7,0,2.5,0.4,4.4,4c2.5,4.8,4.2,13,4.9,24.5l-0.1,0.2
			c-0.1,0.2-0.1,0.8,0.6,1.2l1.6,0.8l0-0.1c1.5,0.7,4.2,1.9,9.5,4.3c2,0.9,3.9,1.8,5.8,2.6c9.9,4.4,18.4,8.2,17.6,13.3
			c-0.9,6.2-5.1,12.5-5.7,13.4c-1.6,1.2-15.3,11.6-18.2,20.4c-1.3,3.8-4.6,7.8-8.1,12c-4.6,5.5-9.4,11.3-9.9,17.2
			c-0.4,3.7-2.6,6.6-6.7,8.4c-3.2,1.4-6.3,1.7-6.3,1.7l-0.2,0l-0.2,0.1c0,0-0.7,0.4-2.5,0.4c-3.3,0-11.3-1.4-27.5-10.4l-0.3-0.2
			l-0.3,0c0,0-3.7,0.5-8.2,0.5c-5.9,0-10.4-0.8-13.1-2.4c-1.7-0.9-3.3-2.1-4.8-3.2c-3.3-2.3-6.2-4.3-8.9-4.3c-1.8,0-3.4,0.9-4.6,2.8
			c-1.5,2.2-3.5,3.3-6.2,3.3c-2,0-3.6-0.7-3.6-0.7l-0.1,0l-0.1,0l-11-2l-0.5-0.1l-0.4,0.4c0,0-3.8,3.7-8.3,3.7
			c-4.8,0-10.3,0-16.1-17.3c-1-3-6.3-17.7-14.7-17.7c0,0-0.1,0-0.1,0c-0.7-0.3-6.1-3-13.2-22.3c-7.8-21.3-15.8-43.3-15.9-61.1
			c1.6-0.9,6.9-3.6,10-3.6c1.2,0,3.3,0,7-18.3c1.6-8.1,2.8-16.3,3-17.4c0.3-0.8,2.8-6,8.4-6V255.3 M59.4,255.3
			c-6.8,0-9.4,6.7-9.4,6.7s-5,35-9,35s-11,4-11,4c0,18,8,40,16,62s14,23,14,23s0.1,0,0.2,0c1.4,0,8.4,0.8,13.8,17c6,18,12,18,17,18
			s9-4,9-4l11,2c0,0,1.8,0.8,4,0.8s5-0.8,7-3.8c1.1-1.7,2.4-2.3,3.8-2.3c3.6,0,8.2,4.4,13.2,7.3c3.5,2,9,2.5,13.6,2.5
			s8.4-0.5,8.4-0.5c15.9,8.9,24.1,10.5,28,10.5c2.2,0,3-0.5,3-0.5s13-1,14-11s15-20,18-29s18-20,18-20s5-7,6-14s-11-11-24-17
			c-8.4-3.9-10.5-4.8-11-5c0,0,0,0,0,0c0,0-0.1-0.1-0.1-0.1c0,0,0,0,0.1,0c-1.7-27.9-8.4-30-10.4-30c-0.4,0-0.6,0.1-0.6,0.1
			s-1.3,1.1-2.8,1.1c-2.1,0-4.6-2-5.2-11.1c-0.8-12.8-4.2-14.1-5.5-14.1c-0.3,0-0.5,0.1-0.5,0.1c-2.6,0.3-5.6,0.4-8.9,0.4
			c-21.3,0-55.1-5.1-62.1-9.4c-8-5-16-5-16-5s-0.8,8.8-7.1,8.8c-3.4,0-8.5-2.6-15.9-10.8C69.8,258,63.8,255.3,59.4,255.3L59.4,255.3
			z"/>
	</g>
	<g>
		<path style="fill:#6AAE8F;" d="M178.4,501.3c-3.6,0-7-0.3-10.3-0.8c-12.8-2-29.5-7.8-43.7-15.2c-13.2-6.9-21.8-13.9-24.2-19.7
			c1.7,2.2,4.5,5.2,7.7,5.9c0.9,0.2,1.8,0.3,2.9,0.5c4.9,0.7,11.6,1.7,14.8,7.3c1,1.7,2,2.6,3,2.6c2.3,0,3.5-4.7,3.9-6.3
			c2.5,0.3,15.1,2.2,28.3,11.9c4.5,3.3,9.3,5,14.2,5c7.9,0,13.4-4.2,14.3-4.9c1-0.2,7.5-1.3,13.1-1.3c3.5,0,6,0.4,7.4,1.3
			c0.7,0.4,1.5,0.6,2.2,0.6c4.3,0,8.5-6.4,9.3-7.6c0.9-0.2,4.8-0.8,8.6-0.8c2.5,0,4.5,0.3,5.9,0.9c0.5,0.2,0.5,0.4,0.5,0.5
			c0.1,1.9-9,7.4-15.5,10.6C220.6,491.6,200.3,501.3,178.4,501.3z"/>
		<path style="fill:#6AAE8F;" d="M103.5,469.9c1.3,1,2.7,1.8,4.3,2.1c0.9,0.2,1.9,0.3,2.9,0.5c5.1,0.7,11.3,1.7,14.4,7
			c1.1,1.9,2.2,2.8,3.4,2.8c2.5,0,3.8-4,4.2-6.2c3.2,0.4,15.1,2.5,27.6,11.7c4.6,3.4,9.5,5.1,14.5,5.1c7.8,0,13.3-4,14.5-5
			c1.3-0.2,7.5-1.3,12.9-1.3c4.3,0,6.2,0.6,7.2,1.2c0.8,0.5,1.6,0.7,2.5,0.7c4.4,0,8.5-5.9,9.6-7.7c1.2-0.2,4.8-0.8,8.3-0.8
			c2.5,0,4.4,0.3,5.7,0.8c0.1,0,0.1,0.1,0.2,0.1c-0.3,1.5-7.2,6.1-15.2,10.1c-0.2,0.1-20.3,9.7-42.2,9.7c-3.5,0-7-0.3-10.2-0.8
			c-12.7-2-29.4-7.8-43.6-15.1C114.9,479.8,107.6,474.5,103.5,469.9 M99,463c1,14,43,34,69,38c3.5,0.5,7,0.8,10.4,0.8
			c22.3,0,42.6-9.8,42.6-9.8s20-10,15-12c-1.7-0.7-3.9-0.9-6.1-0.9c-4.4,0-8.9,0.9-8.9,0.9s-4.5,7.6-9,7.6c-0.7,0-1.3-0.2-2-0.6
			c-1.7-1-4.6-1.3-7.7-1.3c-6.2,0-13.3,1.3-13.3,1.3s-5.8,4.9-14.1,4.9c-4.1,0-8.9-1.2-13.9-4.9c-15-11-29-12-29-12
			s-1.2,6.3-3.5,6.3c-0.7,0-1.6-0.6-2.5-2.3c-4-7-13-7-18-8S99,463,99,463L99,463z"/>
	</g>
	<g>
		<path style="fill:#6AAE8F;" d="M245.5,472.9c-2.1,0-3.9-0.1-5.4-0.3c-1.9-0.3-3.6-0.5-5.3-0.7c-9.6-1.2-16.1-2.1-22.6-11.9
			c0.4,0.1,1,0.1,1.6,0.1c4,0,11.4-2,23.6-11.6c10.9-8.6,16.8-14.2,21.1-18.2c3.2-3,5.4-5.1,7.9-6.8c6.1-4,15.2-10.1,16.2-23.4
			c0.3-4.1,1.8-6.2,4.4-6.2c3.5,0,7.7,3.5,7.8,3.6l0.2,0.2l0.3-0.1c0,0,5.1-2,16.9-4c6.8-1.1,10.5-5.7,13.4-9.4
			c2.1-2.6,3.8-4.7,5.9-4.7c0.2,0,0.4,0,0.6,0c1.3,0.2,2.5,0.5,3.9,0.8c2.6,0.6,5.3,1.2,7.8,1.2c2.7,0,4.9-0.7,6.7-2.1
			c1.6-1.3,2.9-2.8,4.2-4.2c2.7-3,5-5.7,9.5-5.7c5.1,0,24.3-1.6,25.5-6.4c0.2-0.9,0.5-1.1,0.5-1.1c0.4,0.2,1.5,3.1,1.5,7
			c0,0.7,0.1,1.4,0.1,2.1c0.4,4.9,0.9,12.3-12,29.6c-6.3,8.4-10,14.3-13.2,19.6c-4.5,7.3-8.1,13.1-16.8,22.4
			c-10.4,11.1-24.4,13.9-36.8,16.3c-5.2,1-10.1,2-14,3.5C288,466.7,260.9,472.9,245.5,472.9z"/>
		<path style="fill:#6AAE8F;" d="M390,363.1c0.5,1.1,1,3.3,1,5.9c0,0.7,0.1,1.4,0.1,2.2c0.4,4.8,0.9,12.2-11.9,29.2
			c-6.3,8.4-10,14.4-13.2,19.6c-4.5,7.3-8.1,13.1-16.7,22.3c-10.3,11-24.2,13.7-36.5,16.2c-5.2,1-10.1,2-14.1,3.6
			c-10.8,4.1-37.8,10.3-53.2,10.3c-2.1,0-3.9-0.1-5.3-0.3c-1.9-0.3-3.7-0.5-5.4-0.7c-9.2-1.2-15.5-2-21.6-10.8c0.2,0,0.4,0,0.6,0
			c4.1,0,11.6-2,23.9-11.7c10.9-8.6,16.8-14.2,21.1-18.2c3.2-3,5.3-5,7.8-6.7c6.1-4.1,15.4-10.3,16.4-23.8c0.4-5.7,3-5.7,3.9-5.7
			c3.3,0,7.4,3.4,7.5,3.4l0.5,0.4l0.6-0.2c0,0,5.1-2,16.8-3.9c7-1.2,10.7-5.8,13.7-9.5c2-2.5,3.6-4.5,5.5-4.5c0.2,0,0.3,0,0.5,0
			c1.2,0.2,2.5,0.5,3.9,0.8c2.6,0.6,5.3,1.2,7.9,1.2c2.8,0,5.1-0.7,7-2.2c1.7-1.3,3-2.8,4.2-4.3c2.6-3,4.8-5.5,9.1-5.5
			c3.8,0,24.6-1.2,26-6.8C390,363.2,390,363.1,390,363.1 M389.9,361.5c-0.3,0-0.7,0.4-0.9,1.5c-1,4-18,6-25,6s-9,6-14,10
			c-1.9,1.5-4.1,2-6.3,2c-3.8,0-7.9-1.4-11.7-2c-0.2,0-0.4-0.1-0.6-0.1c-5.5,0-7.8,12.1-19.4,14.1c-12,2-17,4-17,4s-4.4-3.7-8.1-3.7
			c-2.4,0-4.5,1.6-4.9,6.7c-1,13-10,19-16,23s-10,10-29,25c-12.4,9.8-19.7,11.5-23.2,11.5c-1.9,0-2.8-0.5-2.8-0.5c8,13,16,12,29,14
			c1.6,0.2,3.4,0.4,5.5,0.4c15.2,0,42.1-5.9,53.5-10.4c13-5,36-4,51-20s15-22,30-42s12-27,12-32C392,365.3,390.9,361.5,389.9,361.5
			L389.9,361.5z"/>
	</g>
</g>
</svg>
